<svg width="129" height="12" viewBox="0 0 129 12" fill="none" xmlns="http://www.w3.org/2000/svg">
<path d="M0.945 11V0.0949991H7.26C8.03 0.0949991 8.74 0.224999 9.39 0.484999C10.04 0.745 10.6 1.11 11.07 1.58C11.54 2.05 11.905 2.615 12.165 3.275C12.435 3.925 12.57 4.645 12.57 5.435C12.57 6.225 12.435 6.96 12.165 7.64C11.905 8.32 11.54 8.91 11.07 9.41C10.6 9.9 10.04 10.29 9.39 10.58C8.74 10.86 8.03 11 7.26 11H0.945ZM7.26 9.095C7.75 9.095 8.2 9.005 8.61 8.825C9.03 8.645 9.39 8.4 9.69 8.09C10 7.77 10.24 7.39 10.41 6.95C10.58 6.51 10.665 6.035 10.665 5.525C10.665 5.015 10.58 4.545 10.41 4.115C10.24 3.675 10 3.3 9.69 2.99C9.39 2.68 9.03 2.44 8.61 2.27C8.2 2.09 7.75 2 7.26 2H2.835V9.095H7.26ZM24.2536 11L21.4936 7.97H17.4136V6.29H21.9586C22.6486 6.29 23.1686 6.105 23.5186 5.735C23.8686 5.365 24.0436 4.82 24.0436 4.1C24.0436 3.38 23.8586 2.85 23.4886 2.51C23.1286 2.17 22.6186 2 21.9586 2H16.0186V11H14.1286V0.0949991H21.9586C22.5786 0.0949991 23.1336 0.189999 23.6236 0.38C24.1136 0.559999 24.5286 0.824999 24.8686 1.175C25.2086 1.515 25.4686 1.93 25.6486 2.42C25.8286 2.91 25.9186 3.46 25.9186 4.07C25.9186 4.98 25.7236 5.745 25.3336 6.365C24.9436 6.975 24.3886 7.415 23.6686 7.685L26.9536 11H24.2536ZM28.0471 11V0.0949991H29.9521V11H28.0471ZM36.9211 11C36.1611 11 35.4561 10.86 34.8061 10.58C34.1661 10.29 33.6061 9.9 33.1261 9.41C32.6561 8.91 32.2861 8.32 32.0161 7.64C31.7561 6.96 31.6261 6.225 31.6261 5.435C31.6261 4.635 31.7561 3.905 32.0161 3.245C32.2861 2.585 32.6561 2.025 33.1261 1.565C33.6061 1.095 34.1661 0.734999 34.8061 0.484999C35.4561 0.224999 36.1611 0.0949991 36.9211 0.0949991H42.8311V2H36.9211C36.4311 2 35.9761 2.09 35.5561 2.27C35.1461 2.44 34.7911 2.68 34.4911 2.99C34.1911 3.3 33.9561 3.67 33.7861 4.1C33.6161 4.53 33.5311 5.005 33.5311 5.525C33.5311 6.035 33.6161 6.51 33.7861 6.95C33.9561 7.39 34.1911 7.77 34.4911 8.09C34.7911 8.4 35.1461 8.645 35.5561 8.825C35.9761 9.005 36.4311 9.095 36.9211 9.095H41.5861V6.26H36.6661V4.655H43.5061V11H36.9211ZM55.0065 0.0949991H56.8665V6.185C56.8665 7.025 56.7565 7.76 56.5365 8.39C56.3165 9.01 55.9715 9.525 55.5015 9.935C55.0315 10.345 54.4215 10.65 53.6715 10.85C52.9315 11.05 52.0315 11.15 50.9715 11.15C49.9215 11.15 49.0215 11.05 48.2715 10.85C47.5315 10.65 46.9265 10.345 46.4565 9.935C45.9865 9.525 45.6415 9.01 45.4215 8.39C45.2015 7.76 45.0915 7.025 45.0915 6.185V0.0949991H47.0565V6.185C47.0565 6.735 47.1215 7.205 47.2515 7.595C47.3915 7.985 47.6115 8.305 47.9115 8.555C48.2215 8.805 48.6315 8.99 49.1415 9.11C49.6515 9.22 50.2815 9.275 51.0315 9.275C51.7815 9.275 52.4115 9.22 52.9215 9.11C53.4315 8.99 53.8365 8.805 54.1365 8.555C54.4465 8.305 54.6665 7.985 54.7965 7.595C54.9365 7.205 55.0065 6.735 55.0065 6.185V0.0949991ZM58.5866 11V0.0949991H68.3216V2H60.4766V9.095H68.3366V11H58.5866ZM61.8716 6.26V4.655H67.9166V6.26H61.8716ZM69.9684 11V9.095H78.1434C78.6534 9.095 79.0434 8.965 79.3134 8.705C79.5934 8.445 79.7334 8.1 79.7334 7.67C79.7334 7.19 79.5934 6.835 79.3134 6.605C79.0434 6.375 78.6534 6.26 78.1434 6.26H73.1334C72.6234 6.26 72.1584 6.185 71.7384 6.035C71.3284 5.875 70.9784 5.66 70.6884 5.39C70.4084 5.11 70.1884 4.78 70.0284 4.4C69.8784 4.02 69.8034 3.605 69.8034 3.155C69.8034 2.715 69.8734 2.31 70.0134 1.94C70.1634 1.56 70.3784 1.235 70.6584 0.965C70.9484 0.694999 71.3034 0.484999 71.7234 0.335C72.1434 0.174999 72.6234 0.0949991 73.1634 0.0949991H80.9934V2H73.1634C72.7134 2 72.3684 2.12 72.1284 2.36C71.8984 2.59 71.7834 2.915 71.7834 3.335C71.7834 3.755 71.9034 4.08 72.1434 4.31C72.3934 4.54 72.7284 4.655 73.1484 4.655H78.1434C79.2634 4.655 80.1084 4.915 80.6784 5.435C81.2484 5.955 81.5334 6.745 81.5334 7.805C81.5334 8.265 81.4634 8.69 81.3234 9.08C81.1834 9.47 80.9734 9.81 80.6934 10.1C80.4134 10.38 80.0584 10.6 79.6284 10.76C79.2084 10.92 78.7134 11 78.1434 11H69.9684ZM86.6617 11V2H82.5217V0.0949991H92.7067V2H88.5667V11H86.6617ZM93.9626 11V0.0949991H103.698V2H95.8526V9.095H103.713V11H93.9626ZM97.2476 6.26V4.655H103.293V6.26H97.2476ZM110.324 11C109.564 11 108.859 10.86 108.209 10.58C107.569 10.29 107.009 9.9 106.529 9.41C106.059 8.91 105.689 8.32 105.419 7.64C105.159 6.96 105.029 6.225 105.029 5.435C105.029 4.635 105.159 3.905 105.419 3.245C105.689 2.585 106.059 2.025 106.529 1.565C107.009 1.095 107.569 0.734999 108.209 0.484999C108.859 0.224999 109.564 0.0949991 110.324 0.0949991H116.234V2H110.324C109.834 2 109.379 2.09 108.959 2.27C108.549 2.44 108.194 2.68 107.894 2.99C107.594 3.3 107.359 3.67 107.189 4.1C107.019 4.53 106.934 5.005 106.934 5.525C106.934 6.035 107.019 6.51 107.189 6.95C107.359 7.39 107.594 7.77 107.894 8.09C108.194 8.4 108.549 8.645 108.959 8.825C109.379 9.005 109.834 9.095 110.324 9.095H116.234V11H110.324ZM126.556 11.045V6.305H121.066V4.61H126.556V0.0949991H128.461V11.045H126.556ZM117.781 11.045V0.0949991H119.686V11.045H117.781Z" fill="#FF904B"/>
</svg>
